<svg height='100px' width='100px'  fill="#FFFFFF" xmlns:x="http://ns.adobe.com/Extensibility/1.0/" xmlns:i="http://ns.adobe.com/AdobeIllustrator/10.0/" xmlns:graph="http://ns.adobe.com/Graphs/1.0/" xmlns="http://www.w3.org/2000/svg" xmlns:xlink="http://www.w3.org/1999/xlink" version="1.1" x="0px" y="0px" viewBox="0 0 100 100" style="enable-background:new 0 0 100 100;" xml:space="preserve"><g><g i:extraneous="self"><g><path d="M95.9,32.5c-12.2-12.3-28.5-19-46-19c-17.4,0-33.7,6.8-45.9,19C2,34.6,2,37.9,4.1,40c2.1,2.1,5.5,2.1,7.5,0     C21.9,29.8,35.5,24.1,50,24.1c14.6,0,28.2,5.6,38.4,15.9c1,1,2.4,1.6,3.8,1.6c1.4,0,2.7-0.5,3.8-1.6C98,37.9,98,34.6,95.9,32.5z"></path><path d="M50,32.4c-12.2,0-24,4.9-32.5,13.6c-2.1,2.1-2,5.5,0.1,7.5c1,1,2.4,1.5,3.7,1.5c1.4,0,2.8-0.5,3.8-1.6     c6.5-6.6,15.6-10.4,24.9-10.4c9.5,0,18.3,3.7,25,10.3c2.1,2.1,5.5,2.1,7.5,0c2.1-2.1,2.1-5.5,0-7.5C73.9,37.2,62.3,32.4,50,32.4z     "></path><path d="M50,51.3c-7.2,0-14,2.8-19.2,8c-2.1,2.1-2.1,5.5,0,7.5c2.1,2.1,5.5,2.1,7.5,0c6.2-6.2,17-6.2,23.3,0c1,1,2.4,1.6,3.8,1.6     c1.4,0,2.7-0.5,3.8-1.6c2.1-2.1,2.1-5.5,0-7.5C64,54.1,57.2,51.3,50,51.3z"></path><circle cx="50" cy="78.4" r="8.1"></circle></g></g></g></svg>